<?xml version="1.0" standalone="no"?>
<!DOCTYPE svg PUBLIC "-//W3C//DTD SVG 20010904//EN"
 "http://www.w3.org/TR/2001/REC-SVG-20010904/DTD/svg10.dtd">
<svg version="1.0" xmlns="http://www.w3.org/2000/svg"
 width="596.000000pt" height="596.000000pt" viewBox="0 0 596.000000 596.000000"
 preserveAspectRatio="xMidYMid meet">
<metadata>
Created by potrace 1.11, written by Peter Selinger 2001-2013
</metadata>
<g transform="translate(0.000000,596.000000) scale(0.100000,-0.100000)"
fill="#000000" stroke="none">
<path d="M2710 5949 c-375 -37 -707 -132 -1045 -299 -306 -151 -551 -326 -790
-565 -541 -541 -847 -1246 -872 -2010 -20 -626 149 -1221 493 -1740 700 -1056
1978 -1551 3213 -1244 238 59 499 161 704 275 1195 665 1785 2020 1456 3343
-129 520 -396 988 -784 1376 -462 462 -1029 746 -1690 846 -152 23 -533 33
-685 18z m635 -538 c541 -81 1025 -332 1405 -727 364 -378 584 -829 667 -1364
24 -158 24 -507 0 -675 -82 -559 -332 -1049 -733 -1435 -634 -609 -1511 -830
-2364 -596 -584 160 -1105 550 -1424 1065 -365 591 -466 1290 -282 1961 160
584 550 1105 1065 1424 293 181 647 309 971 350 69 9 139 18 155 20 72 10 416
-4 540 -23z"/>
<path d="M2929 4907 c-59 -17 -126 -66 -161 -119 -44 -66 -58 -127 -58 -264
l0 -122 -81 -12 c-302 -44 -545 -219 -674 -484 -66 -135 -87 -226 -88 -376 0
-151 24 -264 83 -385 69 -143 198 -288 323 -363 122 -74 300 -132 402 -132
l35 0 0 -274 0 -275 -307 -3 c-297 -3 -310 -4 -358 -26 -112 -52 -179 -154
-179 -277 0 -121 60 -215 169 -267 l60 -28 307 0 306 0 4 -148 c3 -123 7 -154
24 -193 32 -68 82 -119 149 -151 144 -68 314 -14 390 124 29 51 30 60 35 208
l5 155 69 8 c381 42 691 331 763 712 21 107 13 292 -16 393 -100 346 -399 595
-764 637 l-57 6 2 272 3 272 320 5 c366 6 363 5 448 100 137 152 87 386 -102
474 -43 20 -65 21 -358 24 l-313 3 0 138 c0 161 -12 208 -71 275 -75 84 -203
123 -310 93z m-219 -1388 l0 -271 -32 7 c-159 33 -257 227 -191 377 36 79 135
157 201 158 l22 0 0 -271z m699 -904 c165 -83 201 -305 71 -435 -38 -38 -90
-66 -139 -76 l-31 -6 0 271 0 271 25 0 c14 0 48 -11 74 -25z"/>
</g>
</svg>
