<svg xmlns="http://www.w3.org/2000/svg" fill="none" viewBox="0 0 540 429"><path fill="#C7F464" d="M88 34.5c0 4.143 5.333 7.5 11.915 7.5h389.17C495.667 42 501 38.643 501 34.5s-5.333-7.5-11.915-7.5H99.915C93.333 27 88 30.357 88 34.5zM162.593 303.145c0 48.143 44.939 84.393 92.399 73.341a75.132 75.132 0 0034.245 0c47.273 11.03 92.484-24.958 92.484-73.341 0-41.531-33.788-75.319-75.318-75.319-5.791 0-11.554.669-17.165 1.977a75.205 75.205 0 00-17.081-1.977c-5.79 0-11.553.669-17.164 1.977a75.205 75.205 0 00-17.081-1.977c-41.531-.001-75.319 33.787-75.319 75.319zm204.128 0c0 28.934-20.478 53.175-47.701 58.991 37.905-30.151 37.92-87.821 0-117.983 27.223 5.816 47.701 30.057 47.701 58.992zm-39.841 25.362c-7.882 16.938-23.401 29.632-42.106 33.629 38.007-30.232 37.85-87.875 0-117.983 37.513 8.014 58.456 48.929 42.106 84.354zm-88.969-85.682c34.02 0 61.877 28.435 60.247 63.175-1.495 31.84-27.849 57.463-60.247 57.463-33.26 0-60.318-27.059-60.318-60.318s27.058-60.32 60.318-60.32z"/><path fill="#C7F464" d="M216.691 324.406a7.499 7.499 0 00-7.5 7.5c0 4.143 3.357 7.5 7.5 7.5h13.72v5.499c0 4.143 3.357 7.5 7.5 7.5s7.5-3.357 7.5-7.5v-5.516c11.76-.352 21.221-10.02 21.221-21.864 0-11.844-9.461-21.512-21.221-21.864v-13.78h13.721c4.143 0 7.5-3.357 7.5-7.5s-3.357-7.5-7.5-7.5h-13.721v-5.499c0-4.143-3.357-7.5-7.5-7.5a7.499 7.499 0 00-7.5 7.5v5.516c-11.76.352-21.22 10.021-21.22 21.864s9.46 21.513 21.22 21.865v13.779h-13.72zm28.72-13.728c3.486.334 6.221 3.277 6.221 6.847 0 3.57-2.735 6.513-6.221 6.847v-13.694zm-21.22-21.915c0-3.571 2.735-6.513 6.22-6.847v13.696c-3.485-.335-6.22-3.278-6.22-6.849zM272.156 88.582a7.499 7.499 0 00-7.5 7.5v57.167H248.28c-10.889 0-16.981 12.569-10.235 21.115l23.876 30.258c5.217 6.614 15.246 6.623 20.472.001l23.877-30.259c6.747-8.552.649-21.115-10.236-21.115h-16.377V96.082a7.5 7.5 0 00-7.501-7.5zm19.831 79.667l-19.83 25.131-19.831-25.131h39.661z"/><path fill="#C7F464" d="M24.765.027C11.258.027.269 11.016.269 24.524v379.979C.269 418.011 11.258 429 24.765 429h239.892c4.143 0 7.5-3.357 7.5-7.5s-3.357-7.5-7.5-7.5H24.765c-5.236 0-9.496-4.261-9.496-9.497V68.329h509.147v336.174c0 5.236-4.26 9.497-9.496 9.497H299.656a7.499 7.499 0 00-7.5 7.5c0 4.143 3.357 7.5 7.5 7.5H514.92c13.507 0 24.496-10.989 24.496-24.497V24.523c0-13.496-10.979-24.496-24.496-24.496H24.765zm30.472 53.302H15.269V24.524c0-5.236 4.26-9.497 9.496-9.497h30.473l-.001 38.302zm459.682-38.302c5.236 0 9.497 4.26 9.497 9.497v28.805H70.237V15.027h444.682z"/></svg>
